<?xml version="1.0" encoding="UTF-8"?>
<svg id="_图层_1" data-name="图层_1" xmlns="http://www.w3.org/2000/svg" version="1.1" xmlns:xlink="http://www.w3.org/1999/xlink" viewBox="0 0 1310 936">
  <!-- Generator: Adobe Illustrator 29.7.1, SVG Export Plug-In . SVG Version: 2.1.1 Build 8)  -->
  <defs>
    <style>
      .st0 {
        fill: #2d76bb;
      }

      .st1 {
        fill: url(#_未命名的渐变_134);
      }

      .st1, .st2, .st3, .st4, .st5, .st6, .st7 {
        fill-rule: evenodd;
      }

      .st2 {
        fill: url(#_未命名的渐变_135);
      }

      .st3 {
        fill: url(#_未命名的渐变_132);
      }

      .st4 {
        fill: url(#_未命名的渐变_131);
      }

      .st5 {
        fill: url(#_未命名的渐变_133);
      }

      .st6 {
        fill: url(#_未命名的渐变_13);
      }

      .st7 {
        fill: url(#_未命名的渐变_136);
      }
    </style>
    <linearGradient id="_未命名的渐变_13" data-name="未命名的渐变 13" x1="371.61" y1="541.48" x2="371.61" y2="166.27" gradientUnits="userSpaceOnUse">
      <stop offset="0" stop-color="#576fb4"/>
      <stop offset="1" stop-color="#27b7e8"/>
    </linearGradient>
    <linearGradient id="_未命名的渐变_131" data-name="未命名的渐变 13" x1="723.42" y1="448.4" x2="723.42" y2="344.75" xlink:href="#_未命名的渐变_13"/>
    <linearGradient id="_未命名的渐变_132" data-name="未命名的渐变 13" x1="900.95" y1="615.29" x2="900.95" y2="140.71" xlink:href="#_未命名的渐变_13"/>
    <linearGradient id="_未命名的渐变_133" data-name="未命名的渐变 13" x1="963.77" y1="182.81" x2="963.77" y2="132.65" xlink:href="#_未命名的渐变_13"/>
    <linearGradient id="_未命名的渐变_134" data-name="未命名的渐变 13" x1="679.14" y1="553.55" x2="679.14" y2="473.8" xlink:href="#_未命名的渐变_13"/>
    <linearGradient id="_未命名的渐变_135" data-name="未命名的渐变 13" x1="638.95" y1="614.29" x2="638.95" y2="136.64" xlink:href="#_未命名的渐变_13"/>
    <linearGradient id="_未命名的渐变_136" data-name="未命名的渐变 13" x1="459.55" y1="383.07" x2="459.55" y2="132.65" xlink:href="#_未命名的渐变_13"/>
  </defs>
  <g>
    <path class="st6" d="M323.28,530.74V166.27l96.67,98.21-1.24,246.56s-1.2,4.16-3.23,7.33c-2.03,3.17-5.39,4.51-8.83,5.6-3.44,1.09-62.34,16.44-66.8,17.24-4.46.8-10.54-.05-13.15-2.8-2.6-2.75-3.41-7.65-3.41-7.65h0Z" shape-rendering="geometricPrecision"/>
    <path class="st4" d="M768.93,344.75h-6.31l-5.79,5.79-78.92,97.86h91.02v-103.65Z" shape-rendering="geometricPrecision"/>
    <path class="st3" d="M801.4,490.57c0-101.23.13-248.9.13-250.13l68.94-84.57s.85-1.11,2.23-2.7c.68-.78,1.33-1.5,1.94-2.18,2.23-2.43,5.1-5.25,7.93-7.21,3.56-2.47,7.42-2.25,8.58-3.06,1.22-.06,2.33.13,3.25.65,3.46,1.94,3.78,5.54,3.94,13.27.08,3.96.04,102.54,0,198.93-.04,91.82-.07,181.64,0,185.82.07,4.1,4.99,18.54,10.99,25.72,6.52,7.8,16.75,12.07,16.75,12.07V209.79h74.31s.25,364.07,0,373.67c-.25,9.6-3.74,15.49-13.08,23.62-8.35,7.26-12.9,7.44-20.63,7.75-.92.04-1.89.08-2.92.13-9.62.49-120.11.4-128.21,0-8.68-.43-15.79-2.3-21.98-7.87-6.96-6.28-11.88-18.47-12.03-23.62-.05-1.66-.08-12.74-.1-29.96.08.04.12.05.12.05v-62.93s-.05-.02-.15-.05h0Z" shape-rendering="geometricPrecision"/>
    <path class="st5" d="M926.79,132.65h73.95v50.16h-73.95v-50.16Z" shape-rendering="geometricPrecision"/>
    <path class="st1" d="M556.73,539.98l42.89-51.72s54.61-15.03,104.95-14.44c50.34.59,96.98,16.81,96.98,16.81v62.93s-18.76-8.04-38.36-10.99c-19.6-2.95-51.72-2.59-51.72-2.59h-154.73Z" shape-rendering="geometricPrecision"/>
    <path class="st2" d="M381.22,613.96l373.41-442.39s12.55-16.16,24.55-23.89c12-7.72,18.63-8.92,32.9-10.39,14.28-1.47,69.46,0,69.46,0,0,0,15.14,2.89,15.14,6.75,0,1.61-4.64.71-8.88,3.63-5.92,4.09-12.01,11.94-12.01,11.94l-359.3,438.24s-2.81,2.96-8.36,6.75c-5.54,3.8-13.4,8.6-23.5,9.34-10.1.75-103.41,0-103.41,0Z" shape-rendering="geometricPrecision"/>
    <path class="st7" d="M323.28,166.48v-21.71l1.41-5.12c1.41-5.12,7.15-6.27,7.15-6.27,0,0,54.87-1.63,68.15,0,13.28,1.63,18.32,6.48,28.27,15.69,9.95,9.21,167.55,165.59,167.55,165.59l-59.53,68.42-213-216.59Z" shape-rendering="geometricPrecision"/>
  </g>
  <g>
    <path class="st0" d="M393.29,757.03v-50.92h-70.01v-10.52h140.89l2.25-3.32h13.66l-8.99,13.84h-57.05v57.75c0,3.07-1.04,5.69-3.11,7.84-2.08,2.15-4.56,3.23-7.44,3.23h-29.22l5.01-10.52h6.92c1.96,0,3.63-.71,5.01-2.12,1.38-1.41,2.07-3.16,2.07-5.26ZM344.71,668.29v9.59h-20.75v-28.41h20.75v6.64-.18c.81-.62,1.73-1.23,2.77-1.85,2.07-1.35,4.2-2.34,6.4-2.95,2.19-.61,4.03-.98,5.53-1.11,1.5-.12,2.3-.18,2.42-.18h30.77v-8.86h24.2c-1.04,1.23-1.85,2.52-2.42,3.87-.58,1.36-.92,3.02-1.04,4.98h66.38c-1.16,1.72-2.02,3.5-2.59,5.35-.58,1.85-.86,4.18-.86,7.01v15.68h-20.75v-17.71h-92.49c-.92,0-2.62.21-5.1.64-2.48.43-5.04,1.32-7.69,2.68-1.85,1.23-3.69,2.89-5.53,4.98v-.18Z"/>
    <path class="st0" d="M516.55,666.62l-.69,21.22-18.84,18.08v-10.7l2.42-3.14.69-25.46h16.42ZM525.2,709.8c-.81,1.11-1.38,2.15-1.73,3.13h127.24c-.81,1.23-1.44,2.46-1.9,3.69-.46,1.23-.81,2.89-1.04,4.98v29.71l-150.4,23.62v-12.73l58.6-9.78-6.05-12.54-4.15-.74.17-7.38,26.28,2.58,6.4,14.39,48.92-8.12v-17.34h-105.45v6.09l-24.37,9.96v-10.33l3.46-1.85v-17.34h24.03ZM560.64,649.65l1.56-2.4h11.58l-7.26,12.73h-22.48v45.39h-19.53v-45.2l-26.62-.19v-10.33h26.62v-8.3h22.65c-1.04,1.23-1.81,2.46-2.33,3.69s-.78,2.77-.78,4.61h16.6ZM568.76,695.22v10.7l-19.02-18.08-.69-21.22h16.6l.69,25.46,2.42,3.14ZM575.68,705.92v-10.7l2.25-3.14.86-25.46h16.42l-.69,21.22-18.84,18.08ZM622.7,641.35h3.11c-1.04,1.23-1.81,2.46-2.33,3.69s-.78,2.77-.78,4.61h16.6l1.38-2.4h11.58l-7.09,12.73h-22.47v45.39h-19.53v-45.2l-26.62-.19v-10.33h26.62v-8.3h19.53ZM644.31,666.62l.69,25.46,2.42,3.14v10.7l-19.02-18.08-.69-21.22h16.6Z"/>
    <path class="st0" d="M668.86,709.24v-11.07h66.9v-36.16h-62.93v-11.44h62.93v-8.67h25.41c-.81,1.23-1.47,2.49-1.99,3.78s-.9,2.92-1.12,4.89h48.23l1.38-2.21h13.66l-8.3,13.65h-55.15v36.16h67.59v11.07h-67.59v65.68h-22.13v-65.68h-66.9ZM670.93,759.8l8.47-9.78,1.9-28.97h20.4l-1.73,26.94-29.04,26.94v-15.13ZM824.79,759.8v15.13l-29.04-26.94-1.9-26.94h20.57l1.9,28.97,8.47,9.78Z"/>
    <path class="st0" d="M934.05,641.53c-.58.49-1.07,1.05-1.47,1.66-.41.62-.78,1.45-1.12,2.49-.35,1.05-.58,2.31-.69,3.78h50.31l1.38-2.58h13.66l-8.3,13.1h-57.22v45.57h67.6v10.52h-67.6v58.86h-21.95v-58.86h-66.21v-10.52h66.21v-45.57h-64.66v-10.52h64.66v-7.93h25.41ZM880.28,724.93l-2.42,27.68-33.02,22.32v-13.47l11.93-9.96,2.07-26.57h21.44ZM879.94,696.15h-20.75l-4.67-17.71-4.67-.74v-6.64l25.24,3.87,4.84,21.22ZM958.6,696.15l4.84-21.22,25.24-3.87v6.64l-4.67.74-4.67,17.71h-20.75ZM995.59,761.46v13.47l-33.19-22.32-2.42-27.68h21.61l2.07,26.57,11.93,9.96Z"/>
  </g>
</svg>